<?xml version="1.0" ?><!DOCTYPE svg  PUBLIC '-//W3C//DTD SVG 1.1//EN'  'http://www.w3.org/Graphics/SVG/1.1/DTD/svg11.dtd'><svg enable-background="new 0 0 91 91" height="91px" id="Layer_1" version="1.1" viewBox="0 0 91 91" width="91px" xml:space="preserve" xmlns="http://www.w3.org/2000/svg" xmlns:xlink="http://www.w3.org/1999/xlink"><g><g><path d="M71.896,30.395c-0.183-4.91-2.102-7.731-5.043-9.768c-2.957-1.994-7.138-2.93-11.285-2.92    c-3.844-0.009-7.629,0.794-10.188,1.953l-1.021,0.453l-1.026-0.453c-2.047-0.933-4.901-1.621-7.944-1.866l-5.237,0.07    c-3.089,0.349-6.042,1.25-8.283,2.769c-2.942,2.03-4.865,4.856-5.047,9.758c-0.004,0.389-0.016,0.753-0.016,1.087    c0.058,6.923,1.646,9.425,3.573,12.917c1.985,3.433,4.262,7.83,4.201,15.962c-0.006,9.441,1.595,14.98,3.335,17.908    c1.769,2.943,2.362,3.383,4.293,3.383c2.041,0,2.747-2.057,2.828-3.143c0.394-3.994-0.287-10.242,1.682-16.904    c0.567-1.842,1.259-4.154,2.643-6.236c1.862-2.813,6.896-5.008,10.006,0c1.323,2.125,2.07,4.395,2.633,6.236    c1.515,5.076,1.951,10.385,1.597,14.434c-0.488,5.629,2.815,5.613,2.92,5.613c1.756,0,2.523-0.439,4.291-3.383    c1.741-2.928,3.344-8.465,3.336-17.908c-0.057-8.15,2.224-12.529,4.209-15.968c1.927-3.492,3.5-5.987,3.563-12.911    C71.911,31.132,71.902,30.774,71.896,30.395z" fill="#F4F2E8"/><path d="M74.118,30.703l-0.007-0.392c-0.191-5.15-2.096-8.807-6.019-11.521c-3.154-2.128-7.581-3.299-12.461-3.299    h-0.129c-3.937,0-8.062,0.804-11.017,2.143l-0.128,0.057l-0.106-0.047c-2.337-1.064-5.421-1.796-8.685-2.059    c-0.069-0.005-0.145-0.009-0.207-0.006l-5.238,0.069c-0.074,0.001-0.146,0.007-0.22,0.014c-3.648,0.413-6.856,1.496-9.292,3.146    c-3.903,2.693-5.812,6.348-6.003,11.56L14.6,30.833c-0.004,0.225-0.008,0.439-0.008,0.663c0.059,7.141,1.683,10.066,3.563,13.455    l0.307,0.552c2.006,3.466,3.959,7.47,3.904,14.853c-0.007,10.656,1.979,16.236,3.651,19.051c1.859,3.098,3.008,4.455,6.189,4.455    c3.052,0,4.844-2.611,5.032-5.141c0.125-1.27,0.148-2.727,0.173-4.27c0.057-3.484,0.128-7.822,1.422-12.199l0.044-0.146    c0.542-1.76,1.155-3.756,2.326-5.518c0.657-0.992,2.052-1.998,3.446-1.998c1.08,0,2.032,0.654,2.834,1.943    c1.176,1.891,1.854,3.941,2.391,5.699c1.311,4.393,1.874,9.479,1.512,13.609c-0.244,2.818,0.299,4.975,1.612,6.408    c1.371,1.496,3.035,1.611,3.513,1.611h0.002c3.004,0,4.338-1.375,6.195-4.465c1.668-2.805,3.657-8.385,3.646-19.055    c-0.05-7.359,1.907-11.371,3.935-14.884l0.272-0.494c1.878-3.388,3.502-6.315,3.564-13.487    C74.127,31.225,74.123,30.968,74.118,30.703z M66.688,42.817l-0.256,0.463c-2.21,3.828-4.564,8.623-4.506,17.078    c0.01,10.16-1.891,14.871-3.021,16.768c-1.36,2.266-1.591,2.307-2.349,2.309c-0.417-0.068-0.951-0.969-0.758-3.207    c0.414-4.727-0.199-10.287-1.684-15.273c-0.671-2.191-1.483-4.527-2.87-6.758c-1.615-2.6-3.956-4.031-6.595-4.031    c-3.11,0-5.825,1.998-7.138,3.977c-1.522,2.295-2.268,4.717-2.866,6.664l-0.054,0.168c-1.471,4.982-1.547,9.654-1.607,13.408    c-0.024,1.51-0.046,2.814-0.158,3.959c-0.001,0.01-0.146,1.094-0.62,1.094c-0.932,0-1.008,0-2.389-2.301    c-1.133-1.906-3.031-6.617-3.025-16.76c0.063-8.482-2.289-13.27-4.477-17.05l-0.29-0.522c-1.718-3.094-2.959-5.329-3.009-11.323    c0-0.178,0.005-0.367,0.009-0.563l0.006-0.441c0.139-3.736,1.363-6.134,4.077-8.008c1.807-1.224,4.289-2.049,7.183-2.389    l5.021-0.067c2.688,0.226,5.273,0.832,7.127,1.676l0.932,0.412l6.975,3.699c0.331,0.175,0.686,0.258,1.036,0.258    c0.793,0,1.56-0.427,1.958-1.177c0.572-1.08,0.161-2.42-0.919-2.994l-2.535-1.345c1.78-0.391,3.734-0.617,5.615-0.617h0.129    c3.949,0,7.589,0.927,9.963,2.526c2.729,1.889,3.952,4.289,4.089,7.98l0.007,0.356c0.005,0.237,0.01,0.468,0.01,0.673    C69.643,37.485,68.404,39.721,66.688,42.817z" fill="#3B6A75"/><path d="M76.009,54.783c-0.855,0-1.851-0.313-2.577-1.221c-1.621-2.025-0.865-5.695,2.525-12.268    c5.591-10.835,3.123-21.451-6.287-27.042c-9.771-5.803-25.941-0.409-26.104-0.354c-0.414,0.143-0.859,0.155-1.282,0.044    c-0.079-0.021-7.997-2.106-14.719-1.936c-7.115,0.182-13.041,3.251-15.852,8.209c-7.294,12.878,4.204,30.937,4.321,31.119    c0.44,0.682,0.474,1.549,0.086,2.262c-0.388,0.711-1.134,1.156-1.945,1.156H2.482c-1.224,0-2.215-0.992-2.215-2.215    s0.991-2.213,2.215-2.213h7.896c-3.322-6.435-9.095-20.679-2.516-32.291C11.445,11.71,18.768,7.802,27.453,7.579    c6.289-0.162,13.206,1.399,15.328,1.92c3.359-1.038,18.729-5.243,29.15,0.945c11.41,6.78,14.608,19.993,7.961,32.879    c-2.048,3.968-2.644,6.025-2.805,7H88.52c1.223,0,2.214,0.992,2.214,2.215c0,1.221-0.991,2.213-2.214,2.213H76.477    C76.328,54.771,76.171,54.783,76.009,54.783z" fill="#68C1E0"/></g><path d="M27.596,40.761c-0.714,0-1.415-0.345-1.842-0.982c-1.883-2.813-1.839-7.321,0.105-10.964   c1.567-2.937,4.089-4.619,6.917-4.619c1.223,0,2.214,0.99,2.214,2.214c0,1.222-0.991,2.214-2.214,2.214   c-1.563,0-2.558,1.428-3.013,2.277c-1.131,2.119-1.279,4.996-0.331,6.414c0.681,1.018,0.408,2.393-0.607,3.072   C28.448,40.639,28.021,40.761,27.596,40.761z" fill="#FFFFFF"/></g></svg>