<?xml version="1.0" encoding="iso-8859-1"?>
<!-- Generator: Adobe Illustrator 16.0.0, SVG Export Plug-In . SVG Version: 6.00 Build 0)  -->
<!DOCTYPE svg PUBLIC "-//W3C//DTD SVG 1.1//EN" "http://www.w3.org/Graphics/SVG/1.1/DTD/svg11.dtd">
<svg version="1.1" id="Capa_1" xmlns="http://www.w3.org/2000/svg" xmlns:xlink="http://www.w3.org/1999/xlink" x="0px" y="0px"
	 width="380.725px" height="380.725px" viewBox="0 0 380.725 380.725" style="enable-background:new 0 0 380.725 380.725;"
	 xml:space="preserve">
<g>
	<g>
		<path d="M306.579,30.532C267.39-15.2,200.605,20.481,191.136,25.878C160.73,5.092,118.206-13.213,83.978,12.877
			C59.38,31.618,45.229,55.791,41.871,84.739c-4.299,37.145,10.712,73.087,22.238,91.433c1.394,5.007,5.798,8.766,11.258,8.766
			h234.245c5.553,0,10.003-3.892,11.316-9.028c9.469-14.709,15.812-31.254,17.881-48.676
			C341.621,103.572,338.333,67.572,306.579,30.532z M63.923,87.294c2.649-22.726,13.896-41.815,33.52-56.751
			C140.723-2.448,213.63,73.48,214.362,74.258c4.229,4.462,11.258,4.636,15.696,0.424c4.45-4.212,4.647-11.229,0.431-15.68
			c-0.988-1.045-8.343-8.72-19.671-18.189c17.753-8.15,56.757-21.646,78.914,4.188c20.972,24.469,30.325,52.011,27.024,79.629
			c-1.545,12.99-6.204,25.317-12.954,36.523H80.991C72.219,145.76,60.519,116.672,63.923,87.294z"/>
		<path d="M291.917,199.171c-49.531,0-197.994,0-205.221,0c-8.552,0-15.256,8.563-11.909,18.067
			c2.184,5.926,5.03,34.008,6.483,58.615c3.09,52.4,5.763,97.667,32.567,103.349c6.82,1.452,13.396,0.256,18.95-3.45
			c14.419-9.621,18.962-33.729,24.213-61.648c6.762-35.938,12.99-63.287,28.977-62.219c4.834,0.349,6.867,2.115,8.109,3.613
			c8.134,9.842,4.602,39.132,2.022,60.498c-3.741,31.022-6.983,57.826,13.442,63.775c1.848,0.535,4.102,0.953,6.692,0.953
			c4.113,0,9.051-1.046,14.466-4.299c31.358-18.893,69.723-150.695,72.128-157.306C306.661,207.327,301.084,199.171,291.917,199.171
			z M275.418,223.454c-12.989,63.031-38.179,123.111-56.165,133.94c-0.789,0.477-1.824,0.998-2.695,1.092
			c-2.51-5.855,0.035-26.979,1.58-39.852c3.579-29.547,7.238-60.104-6.947-77.3c-5.693-6.901-13.885-10.909-23.645-11.606
			c-0.999-0.082-1.975-0.117-2.939-0.117c-34.31,0-42.664,44.453-49.414,80.379c-3.416,18.066-8.063,42.838-14.721,47.264
			c-0.349,0.232-0.709,0.512-2.045,0.21c-10.213-2.173-13.559-58.756-14.988-82.923c-1.313-22.25-2.556-39.782-4.984-53.167h177.824
			C275.964,222.071,275.569,222.699,275.418,223.454z"/>
	</g>
</g>
<g>
</g>
<g>
</g>
<g>
</g>
<g>
</g>
<g>
</g>
<g>
</g>
<g>
</g>
<g>
</g>
<g>
</g>
<g>
</g>
<g>
</g>
<g>
</g>
<g>
</g>
<g>
</g>
<g>
</g>
</svg>
