<?xml version="1.0" encoding="UTF-8" standalone="no"?>
<!-- Generator: Adobe Illustrator 16.0.0, SVG Export Plug-In . SVG Version: 6.00 Build 0)  -->

<svg
   xmlns:dc="http://purl.org/dc/elements/1.1/"
   xmlns:cc="http://creativecommons.org/ns#"
   xmlns:rdf="http://www.w3.org/1999/02/22-rdf-syntax-ns#"
   xmlns:svg="http://www.w3.org/2000/svg"
   xmlns="http://www.w3.org/2000/svg"
   xmlns:sodipodi="http://sodipodi.sourceforge.net/DTD/sodipodi-0.dtd"
   xmlns:inkscape="http://www.inkscape.org/namespaces/inkscape"
   version="1.1"
   id="Layer_1"
   x="0px"
   y="0px"
   width="220.875px"
   height="29.562px"
   viewBox="0 0 220.875 29.562"
   enable-background="new 0 0 220.875 29.562"
   xml:space="preserve"
   inkscape:version="0.91 r13725"
   sodipodi:docname="logo.svg"><metadata
     id="metadata35"><rdf:RDF><cc:Work
         rdf:about=""><dc:format>image/svg+xml</dc:format><dc:type
           rdf:resource="http://purl.org/dc/dcmitype/StillImage" /></cc:Work></rdf:RDF></metadata><defs
     id="defs33" /><sodipodi:namedview
     pagecolor="#ffffff"
     bordercolor="#666666"
     borderopacity="1"
     objecttolerance="10"
     gridtolerance="10"
     guidetolerance="10"
     inkscape:pageopacity="0"
     inkscape:pageshadow="2"
     inkscape:window-width="1600"
     inkscape:window-height="876"
     id="namedview31"
     showgrid="false"
     inkscape:zoom="3.7520278"
     inkscape:cx="93.679955"
     inkscape:cy="31.637834"
     inkscape:window-x="0"
     inkscape:window-y="24"
     inkscape:window-maximized="1"
     inkscape:current-layer="Layer_1" /><path
     fill="#3CADB2"
     d="M11.086,15.826c2.152,0,3.15,1.633,3.36,3.952c0.049,0.556-0.002,1.364-0.074,2.301  c-0.242,3.114-0.52,6.939,1.553,6.939c1.753,0,2.654-3.363,3.174-7.198c0.502-3.795-0.03-5.685,0.231-7.369  c0.498-3.193,3.286-6.056,2.424-10.128c-0.477-2.259-1.72-3.321-2.953-3.768c-2.838-1.033-4.67,0.957-7.718,0.957  s-4.88-1.99-7.719-0.957C2.135,1.002,0.891,2.064,0.414,4.323c-0.86,4.071,1.926,6.935,2.426,10.128  c0.261,1.685-0.27,3.574,0.232,7.369c0.52,3.834,1.42,7.198,3.174,7.198c2.071,0,1.795-3.825,1.553-6.939  c-0.071-0.937-0.124-1.746-0.074-2.301C7.934,17.458,8.945,15.826,11.086,15.826L11.086,15.826z"
     id="path3" /><text
     xml:space="preserve"
     style="font-style:normal;font-weight:normal;font-size:40px;line-height:125%;font-family:sans-serif;letter-spacing:0px;word-spacing:0px;fill:#3cadb2;fill-opacity:1;stroke:none;stroke-width:1px;stroke-linecap:butt;stroke-linejoin:miter;stroke-opacity:1"
     x="25.05312"
     y="22.898937"
     id="text3414"
     sodipodi:linespacing="125%"><tspan
       sodipodi:role="line"
       id="tspan3416"
       x="25.05312"
       y="22.898937"
       style="font-style:normal;font-variant:normal;font-weight:normal;font-stretch:normal;font-size:25px;font-family:'DejaVu Sans';-inkscape-font-specification:'DejaVu Sans';fill:#3cadb2;fill-opacity:1">Bilgehan<tspan
   style="fill:#fa6900;fill-opacity:1"
   id="tspan4218">Dental</tspan></tspan></text>
</svg>