<?xml version="1.0" encoding="UTF-8" standalone="no"?>
<svg
   xmlns:dc="http://purl.org/dc/elements/1.1/"
   xmlns:cc="http://creativecommons.org/ns#"
   xmlns:rdf="http://www.w3.org/1999/02/22-rdf-syntax-ns#"
   xmlns:svg="http://www.w3.org/2000/svg"
   xmlns="http://www.w3.org/2000/svg"
   xmlns:sodipodi="http://sodipodi.sourceforge.net/DTD/sodipodi-0.dtd"
   xmlns:inkscape="http://www.inkscape.org/namespaces/inkscape"
   enable-background="new 0 0 91 91"
   height="91px"
   id="Layer_1"
   version="1.1"
   viewBox="0 0 91 91"
   width="91px"
   xml:space="preserve"
   inkscape:version="0.91 r13725"
   sodipodi:docname="logo-v2-2color.svg"><metadata
     id="metadata19"><rdf:RDF><cc:Work
         rdf:about=""><dc:format>image/svg+xml</dc:format><dc:type
           rdf:resource="http://purl.org/dc/dcmitype/StillImage" /><dc:title></dc:title></cc:Work></rdf:RDF></metadata><defs
     id="defs17" /><sodipodi:namedview
     pagecolor="#ffffff"
     bordercolor="#666666"
     borderopacity="1"
     objecttolerance="10"
     gridtolerance="10"
     guidetolerance="10"
     inkscape:pageopacity="0"
     inkscape:pageshadow="2"
     inkscape:window-width="926"
     inkscape:window-height="848"
     id="namedview15"
     showgrid="false"
     inkscape:zoom="2.4399069"
     inkscape:cx="32.45596"
     inkscape:cy="81.753742"
     inkscape:window-x="10"
     inkscape:window-y="24"
     inkscape:window-maximized="0"
     inkscape:current-layer="Layer_1" /><g
     id="g3"><g
       id="g5"><path
         d="M71.896,30.395c-0.183-4.91-2.102-7.731-5.043-9.768c-2.957-1.994-7.138-2.93-11.285-2.92    c-3.844-0.009-7.629,0.794-10.188,1.953l-1.021,0.453l-1.026-0.453c-2.047-0.933-4.901-1.621-7.944-1.866l-5.237,0.07    c-3.089,0.349-6.042,1.25-8.283,2.769c-2.942,2.03-4.865,4.856-5.047,9.758c-0.004,0.389-0.016,0.753-0.016,1.087    c0.058,6.923,1.646,9.425,3.573,12.917c1.985,3.433,4.262,7.83,4.201,15.962c-0.006,9.441,1.595,14.98,3.335,17.908    c1.769,2.943,2.362,3.383,4.293,3.383c2.041,0,2.747-2.057,2.828-3.143c0.394-3.994-0.287-10.242,1.682-16.904    c0.567-1.842,1.259-4.154,2.643-6.236c1.862-2.813,6.896-5.008,10.006,0c1.323,2.125,2.07,4.395,2.633,6.236    c1.515,5.076,1.951,10.385,1.597,14.434c-0.488,5.629,2.815,5.613,2.92,5.613c1.756,0,2.523-0.439,4.291-3.383    c1.741-2.928,3.344-8.465,3.336-17.908c-0.057-8.15,2.224-12.529,4.209-15.968c1.927-3.492,3.5-5.987,3.563-12.911    C71.911,31.132,71.902,30.774,71.896,30.395z"
         fill="#F4F2E8"
         id="path7" /><path
         d="M 74.118,30.703 74.111,30.311 C 73.92,25.161 72.015,21.504 68.092,18.79 64.938,16.662 60.511,15.491 55.631,15.491 l -0.129,0 c -3.937,0 -8.062,0.804 -11.017,2.143 l -0.128,0.057 -0.106,-0.047 C 41.914,16.58 38.83,15.848 35.566,15.585 35.497,15.58 35.421,15.576 35.359,15.579 l -5.238,0.069 c -0.074,10e-4 -0.146,0.007 -0.22,0.014 -3.648,0.413 -6.856,1.496 -9.292,3.146 -3.903,2.693 -5.812,6.348 -6.003,11.56 L 14.6,30.833 c -0.004,0.225 -0.008,0.439 -0.008,0.663 0.059,7.141 1.683,10.066 3.563,13.455 l 0.307,0.552 c 2.006,3.466 3.959,7.47 3.904,14.853 -0.007,10.656 1.979,16.236 3.651,19.051 1.859,3.098 3.008,4.455 6.189,4.455 3.052,0 4.844,-2.611 5.032,-5.141 0.125,-1.27 0.148,-2.727 0.173,-4.27 0.057,-3.484 0.128,-7.822 1.422,-12.199 l 0.044,-0.146 c 0.542,-1.76 1.155,-3.756 2.326,-5.518 0.657,-0.992 2.052,-1.998 3.446,-1.998 1.08,0 2.032,0.654 2.834,1.943 1.176,1.891 1.854,3.941 2.391,5.699 1.311,4.393 1.874,9.479 1.512,13.609 -0.244,2.818 0.299,4.975 1.612,6.408 1.371,1.496 3.035,1.611 3.513,1.611 l 0.002,0 c 2.565838,0 3.913317,-1.003139 5.408992,-3.221287 C 62.177404,80.259925 62.437139,79.845706 62.708,79.395 64.376,76.59 66.365,71.01 66.354,60.34 66.304,52.981 68.261,48.969 70.289,45.456 l 0.272,-0.494 c 1.878,-3.388 3.502,-6.315 3.564,-13.487 0.002,-0.25 -0.002,-0.507 -0.007,-0.772 z m -7.43,12.114 -0.256,0.463 c -2.21,3.828 -4.564,8.623 -4.506,17.078 0.01,10.16 -1.891,14.871 -3.021,16.768 -1.36,2.266 -1.591,2.307 -2.349,2.309 -0.417,-0.068 -0.951,-0.969 -0.758,-3.207 0.414,-4.727 -0.199,-10.287 -1.684,-15.273 -0.671,-2.191 -1.483,-4.527 -2.87,-6.758 -1.615,-2.6 -3.956,-4.031 -6.595,-4.031 -3.11,0 -5.825,1.998 -7.138,3.977 -1.522,2.295 -2.268,4.717 -2.866,6.664 l -0.054,0.168 c -1.471,4.982 -1.547,9.654 -1.607,13.408 -0.024,1.51 -0.046,2.814 -0.158,3.959 -10e-4,0.01 -0.146,1.094 -0.62,1.094 -0.932,0 -1.008,0 -2.389,-2.301 -1.133,-1.906 -3.031,-6.617 -3.025,-16.76 0.063,-8.482 -2.289,-13.27 -4.477,-17.05 l -0.29,-0.522 c -1.718,-3.094 -2.959,-5.329 -3.009,-11.323 0,-0.178 0.005,-0.367 0.009,-0.563 l 0.006,-0.441 c 0.139,-3.736 1.363,-6.134 4.077,-8.008 1.807,-1.224 4.289,-2.049 7.183,-2.389 l 5.021,-0.067 c 2.688,0.226 5.273,0.832 7.127,1.676 l 0.932,0.412 6.975,3.699 c 0.331,0.175 0.686,0.258 1.036,0.258 0.793,0 1.56,-0.427 1.958,-1.177 0.572,-1.08 0.161,-2.42 -0.919,-2.994 l -2.535,-1.345 c 1.78,-0.391 3.734,-0.617 5.615,-0.617 l 0.129,0 c 3.949,0 7.589,0.927 9.963,2.526 2.729,1.889 3.952,4.289 4.089,7.98 l 0.007,0.356 c 0.005,0.237 0.01,0.468 0.01,0.673 -0.056,6.026 -1.295,8.262 -3.011,11.358 z"
         id="path9"
         style="fill:#359a9e;fill-opacity:1;stroke:#194546;stroke-opacity:1"
         inkscape:connector-curvature="0"
         sodipodi:nodetypes="cccsscccccccccccccccscccccsccccsssccccccccccccccscccccscccccccccccccscccssccccc" /><path
         d="M76.009,54.783c-0.855,0-1.851-0.313-2.577-1.221c-1.621-2.025-0.865-5.695,2.525-12.268    c5.591-10.835,3.123-21.451-6.287-27.042c-9.771-5.803-25.941-0.409-26.104-0.354c-0.414,0.143-0.859,0.155-1.282,0.044    c-0.079-0.021-7.997-2.106-14.719-1.936c-7.115,0.182-13.041,3.251-15.852,8.209c-7.294,12.878,4.204,30.937,4.321,31.119    c0.44,0.682,0.474,1.549,0.086,2.262c-0.388,0.711-1.134,1.156-1.945,1.156H2.482c-1.224,0-2.215-0.992-2.215-2.215    s0.991-2.213,2.215-2.213h7.896c-3.322-6.435-9.095-20.679-2.516-32.291C11.445,11.71,18.768,7.802,27.453,7.579    c6.289-0.162,13.206,1.399,15.328,1.92c3.359-1.038,18.729-5.243,29.15,0.945c11.41,6.78,14.608,19.993,7.961,32.879    c-2.048,3.968-2.644,6.025-2.805,7H88.52c1.223,0,2.214,0.992,2.214,2.215c0,1.221-0.991,2.213-2.214,2.213H76.477    C76.328,54.771,76.171,54.783,76.009,54.783z"
         fill="#68C1E0"
         id="path11" /></g><path
       d="M27.596,40.761c-0.714,0-1.415-0.345-1.842-0.982c-1.883-2.813-1.839-7.321,0.105-10.964   c1.567-2.937,4.089-4.619,6.917-4.619c1.223,0,2.214,0.99,2.214,2.214c0,1.222-0.991,2.214-2.214,2.214   c-1.563,0-2.558,1.428-3.013,2.277c-1.131,2.119-1.279,4.996-0.331,6.414c0.681,1.018,0.408,2.393-0.607,3.072   C28.448,40.639,28.021,40.761,27.596,40.761z"
       fill="#FFFFFF"
       id="path13" /></g><path
     style="fill:#fa6900;fill-opacity:1"
     d="m 41.940982,13.885676 c -1.554633,-0.422572 -5.31838,-1.130224 -7.64371,-1.437154 -2.936997,-0.387667 -6.703032,-0.523478 -8.585589,-0.309613 -1.598841,0.181634 -3.572934,0.581869 -4.519261,0.916253 -0.174367,0.06161 -0.345535,0.112022 -0.380374,0.112022 -0.03484,0 -0.06334,-1.042401 -0.06334,-2.316447 l 0,-2.3164473 0.380374,-0.1097276 c 1.015897,-0.2930584 2.936319,-0.618173 4.546378,-0.7696711 1.146149,-0.1078468 4.419747,-0.1071479 5.796178,0.00124 3.297793,0.2596802 6.720616,0.7841115 10.188993,1.5611168 l 1.132309,0.2536664 0.754256,-0.2197194 C 43.962034,9.1303465 44.960372,8.8719174 45.765722,8.6769053 50.349718,7.56691 54.63217,7.0626602 58.804239,7.1416472 l 0.633957,0.012002 7.2e-5,2.227906 7.3e-5,2.2279065 -0.851409,-0.02508 c -1.119328,-0.03297 -3.568453,0.100009 -5.198497,0.282256 -3.055154,0.341581 -6.376864,1.016554 -9.234799,1.876514 -1.098373,0.330504 -1.440087,0.352514 -2.212654,0.142519 z"
     id="path4161"
     inkscape:connector-curvature="0" /><path
     style="fill:#fa6900;fill-opacity:1"
     d="M 1.0408279,54.218459 C -0.12319782,53.238996 0.0131388,51.411473 1.3091946,50.62114 1.8715025,50.278245 2.3913926,50.236207 6.0781664,50.235525 L 10.21603,50.234758 9.3220762,48.308681 C 5.9640594,41.073628 4.3565239,33.580354 4.9079529,27.732942 5.7836101,18.447379 10.667318,12.039112 19.205306,8.9723491 l 1.485712,-0.5336536 -0.0025,2.4034735 -0.0025,2.403473 -1.380725,0.560365 c -4.09316,1.661203 -7.227197,4.933675 -8.724314,9.109678 -1.6217813,4.523739 -1.533771,10.386046 0.247658,16.496291 0.988687,3.391167 2.949894,7.963849 4.70337,10.966216 0.890138,1.524126 1.03755,2.306944 0.610795,3.243568 -0.489806,1.075009 -0.817485,1.121367 -7.9263122,1.121367 l -6.5520808,0 -0.6235321,-0.524668 z"
     id="path4163"
     inkscape:connector-curvature="0" /><path
     style="fill:#fa6900;fill-opacity:1"
     d="m 74.257657,54.35362 c -0.349936,-0.213387 -0.857128,-0.743286 -1.127092,-1.177557 -0.417343,-0.671349 -0.487904,-1.035072 -0.471209,-2.42899 0.0257,-2.145822 0.656619,-4.070733 2.854624,-8.709349 1.935787,-4.085238 2.653021,-6.194451 3.100969,-9.1192 1.086417,-7.093451 -1.896732,-13.864135 -7.893907,-17.916351 -2.62017,-1.770416 -6.049719,-2.92391 -9.533841,-3.20661 l -1.765197,-0.143227 0,-2.2569111 0,-2.2569106 1.895564,0.1249547 c 6.072381,0.4002884 11.328338,2.759223 15.546616,6.977501 2.902867,2.902866 4.755218,6.1744 5.867523,10.362939 0.444511,1.673861 0.523925,2.428273 0.540895,5.138264 0.0116,1.851946 -0.09486,3.817191 -0.255315,4.713295 -0.447228,2.497652 -1.766624,6.252431 -3.294574,9.375796 -1.393145,2.847801 -2.47216,5.51388 -2.47216,6.108319 0,0.250057 0.894266,0.295175 5.850563,0.295175 6.427983,0 6.759824,0.05511 7.363685,1.222848 0.518382,1.00244 0.398902,1.803981 -0.38589,2.588773 l -0.696748,0.696748 -7.244129,-8.2e-4 c -6.746537,-6.15e-4 -7.287832,-0.02741 -7.880377,-0.38874 l 0,5.3e-5 z"
     id="path4165"
     inkscape:connector-curvature="0" /></svg>