<?xml version="1.0" ?><!DOCTYPE svg  PUBLIC '-//W3C//DTD SVG 1.1//EN'  'http://www.w3.org/Graphics/SVG/1.1/DTD/svg11.dtd'><svg enable-background="new 0 0 91 91" height="91px" id="Layer_1" version="1.1" viewBox="0 0 91 91" width="91px" xml:space="preserve" xmlns="http://www.w3.org/2000/svg" xmlns:xlink="http://www.w3.org/1999/xlink"><g><g><g><path d="M82.371,19.677c-0.247-6.58-2.813-10.356-6.752-13.074c-3.96-2.676-9.56-3.932-15.114-3.914     C55.357,2.671,50.293,3.759,46.871,5.3L45.494,5.91L44.125,5.3c-2.739-1.248-6.573-2.17-10.639-2.498l-7.015,0.096     c-4.135,0.468-8.089,1.675-11.093,3.712c-3.939,2.711-6.511,6.497-6.757,13.061c-0.01,0.529-0.021,1.016-0.021,1.457     c0.074,9.271,2.203,12.619,4.777,17.297c2.66,4.602,5.707,10.484,5.624,21.375c0,12.639,2.138,20.059,4.47,23.98     c2.373,3.945,3.166,4.533,5.75,4.533c2.729,0,3.673-2.754,3.794-4.211c0.521-5.35-0.395-13.715,2.246-22.639     c0.761-2.473,1.688-5.561,3.538-8.354c2.49-3.76,9.233-6.703,13.396,0c1.767,2.854,2.775,5.881,3.526,8.354     c2.025,6.797,2.612,13.902,2.14,19.33c-0.66,7.545,3.762,7.52,3.904,7.52c2.354,0,3.377-0.588,5.741-4.533     c2.336-3.922,4.479-11.342,4.478-23.98c-0.074-10.914,2.974-16.773,5.634-21.382c2.582-4.674,4.681-8.019,4.769-17.289     C82.391,20.672,82.378,20.191,82.371,19.677z" fill="#F4F2E8"/><path d="M61.771,89.332h-0.005c-0.312,0-1.938-0.074-3.269-1.527c-1.375-1.498-1.93-3.889-1.647-7.1     c0.511-5.852-0.255-12.758-2.101-18.951c-0.801-2.637-1.77-5.447-3.416-8.105c-1.429-2.301-3.313-3.518-5.445-3.518     c-2.673,0-5.105,1.838-6.236,3.543c-1.729,2.607-2.635,5.553-3.361,7.92l-0.052,0.17c-1.819,6.148-1.912,12.109-1.987,16.9     c-0.031,2.016-0.061,3.918-0.219,5.537c-0.204,2.463-1.797,5.131-4.809,5.131c-3.176,0-4.207-1.012-6.623-5.027     c-2.106-3.543-4.614-10.666-4.614-24.506c0.079-10.359-2.668-15.987-5.487-20.865l-0.405-0.731     c-2.381-4.302-4.437-8.017-4.509-17.066c0-0.418,0.008-0.867,0.017-1.353l0.003-0.131c0.234-6.26,2.521-10.663,7.198-13.882     c2.987-2.025,6.98-3.367,11.557-3.885l0.101-0.006l7.014-0.096c4.19,0.334,8.192,1.275,11.075,2.59l0.947,0.422l0.964-0.427     c3.75-1.688,8.957-2.699,13.923-2.699l0.238,0.001c6.138,0,11.667,1.451,15.569,4.089c4.681,3.229,6.966,7.637,7.199,13.88     l0.01,0.541c0.006,0.328,0.011,0.644,0.011,0.946c-0.086,9.114-2.054,12.66-4.544,17.148l-0.353,0.634     c-2.829,4.901-5.577,10.54-5.507,20.883c0.005,13.84-2.51,20.965-4.62,24.508C65.964,88.344,64.665,89.332,61.771,89.332z      M45.889,48.094c2.005,0,4.877,0.777,7.178,4.48c1.771,2.855,2.793,5.816,3.636,8.592c1.918,6.434,2.711,13.617,2.179,19.715     c-0.226,2.582,0.161,4.5,1.12,5.547c0.784,0.855,1.728,0.865,1.767,0.865v1.02l0.002-1.02c1.82,0,2.566-0.195,4.869-4.037     c1.619-2.719,4.336-9.383,4.332-23.457c-0.074-10.848,2.811-16.763,5.771-21.892l0.344-0.621     c2.351-4.235,4.207-7.581,4.289-16.169c0-0.282-0.006-0.585-0.012-0.901l-0.009-0.524c-0.211-5.598-2.156-9.384-6.312-12.249     c-3.51-2.37-8.769-3.733-14.421-3.733h-0.238c-4.691,0-9.586,0.941-13.093,2.521l-1.796,0.795l-1.782-0.793     c-2.685-1.223-6.438-2.101-10.307-2.413l-6.867,0.099C22.311,4.4,18.65,5.623,15.953,7.453     c-4.152,2.856-6.102,6.639-6.312,12.256L9.64,19.82c-0.009,0.473-0.018,0.908-0.018,1.308c0.067,8.524,1.916,11.861,4.255,16.087     l0.396,0.719c2.95,5.104,5.833,11.01,5.75,21.874c0,14.074,2.712,20.734,4.327,23.453c2.346,3.898,2.854,4.035,4.874,4.035     c2.479,0,2.775-3.244,2.778-3.277c0.151-1.551,0.179-3.328,0.211-5.385c0.076-4.916,0.172-11.031,2.074-17.459l0.055-0.178     c0.766-2.492,1.72-5.596,3.61-8.447C39.422,50.332,42.445,48.094,45.889,48.094z" fill="#F4F2E8"/></g><path d="M84.674,20.178l-0.01-0.587c-0.251-6.679-2.711-11.406-7.76-14.888c-4.11-2.778-9.893-4.309-16.281-4.309    l-0.107,0.001l-0.131-0.001c-5.137,0-10.541,1.053-14.441,2.81l-0.444,0.196l-0.421-0.188c-3.01-1.372-7.168-2.355-11.404-2.697    c-0.073-0.006-0.146-0.007-0.216-0.007l-7.014,0.096c-0.076,0.001-0.152,0.007-0.227,0.015c-4.779,0.54-8.971,1.955-12.137,4.101    c-5.035,3.466-7.496,8.188-7.748,14.907c-0.01,0.544-0.019,1.045-0.019,1.517c0.072,9.375,2.201,13.222,4.666,17.675l0.417,0.753    c2.731,4.724,5.393,10.176,5.316,20.227c0,14.129,2.606,21.475,4.797,25.162c2.413,4.012,3.786,5.645,7.715,5.645    c3.646,0,5.817-3.176,6.075-6.281c0.163-1.67,0.194-3.598,0.225-5.641c0.075-4.713,0.166-10.578,1.933-16.547l0.052-0.168    c0.74-2.408,1.579-5.137,3.206-7.592c0.979-1.479,3.07-2.973,5.175-2.973c1.694,0,3.162,0.98,4.362,2.914    c1.567,2.531,2.505,5.25,3.279,7.799c1.773,5.955,2.54,12.861,2.052,18.477c-0.314,3.582,0.352,6.299,1.977,8.072    c1.648,1.799,3.639,1.938,4.208,1.938h0.005c3.722,0,5.32-1.664,7.709-5.65c2.192-3.682,4.805-11.031,4.8-25.17    c-0.067-10.025,2.595-15.487,5.349-20.259l0.35-0.632c2.477-4.462,4.615-8.315,4.705-17.766    C84.686,20.823,84.681,20.506,84.674,20.178z M65.547,82.602c-2.041,3.406-2.48,3.42-3.761,3.42    c-0.075-0.006-0.502-0.055-0.877-0.486c-0.393-0.451-1.013-1.643-0.759-4.541c0.543-6.254-0.267-13.609-2.229-20.197    c-0.869-2.859-1.927-5.914-3.773-8.895c-2.034-3.275-4.968-5.082-8.259-5.082c-3.917,0-7.341,2.523-8.997,5.025    c-1.992,3.004-2.976,6.205-3.767,8.775l-0.06,0.191c-1.949,6.594-2.048,12.807-2.125,17.799c-0.031,2.029-0.061,3.783-0.206,5.301    c-0.003,0.02-0.213,2.107-1.511,2.107c-1.529,0-1.726,0-3.778-3.412c-1.55-2.604-4.148-9.031-4.148-22.791    c0.046-6.06-0.846-10.682-2.13-14.448h9.052c1.853,0.049,5.76-0.98,6.931-5.081c0.059-0.204,0.088-0.416,0.088-0.629v-4.56    c0-0.052-0.006-0.153-0.01-0.205c-0.012-0.18,0.018-0.766,0.304-1.071c0.305-0.327,0.997-0.377,1.385-0.377H54.08    c0.387,0,1.082,0.05,1.387,0.377c0.285,0.305,0.314,0.889,0.305,1.029c-0.009,0.082-0.013,0.164-0.013,0.247v4.56    c0,0.213,0.029,0.424,0.088,0.629c1.149,4.033,4.918,5.082,6.795,5.082c0.03,0,0.062,0,0.091-0.001h9.107    c-1.288,3.772-2.183,8.389-2.142,14.432C69.702,73.568,67.098,80,65.547,82.602z M75.971,36.668l-0.333,0.603    c-0.633,1.097-1.273,2.26-1.89,3.514H62.689c-0.057,0.005-1.746,0.01-2.347-1.496v-4.104c0.04-0.633,0.043-2.746-1.454-4.414    c-0.781-0.871-2.25-1.907-4.809-1.907H36.917c-2.556,0-4.024,1.035-4.805,1.905c-1.499,1.669-1.497,3.784-1.458,4.415v4.104    c-0.563,1.402-2.07,1.493-2.393,1.497H17.259c-0.61-1.239-1.243-2.386-1.868-3.466l-0.397-0.722    c-2.339-4.226-4.03-7.28-4.095-15.471c0-0.429,0.009-0.9,0.018-1.371c0.196-5.245,1.921-8.612,5.751-11.249    c2.517-1.706,5.958-2.852,9.954-3.317l6.789-0.094c3.689,0.308,7.244,1.141,9.784,2.299l1.292,0.575l9.343,4.953    c0.342,0.182,0.709,0.268,1.071,0.268c0.821,0,1.616-0.442,2.027-1.22c0.593-1.119,0.167-2.506-0.952-3.099l-4.938-2.618    c2.854-0.801,6.187-1.273,9.346-1.273h0.238c5.403,0,10.401,1.283,13.696,3.509c3.842,2.651,5.565,6.023,5.762,11.219l0.009,0.556    c0.006,0.299,0.012,0.586,0.012,0.842C80.021,29.37,78.323,32.431,75.971,36.668z" fill="#3B6A75"/></g><path d="M72.238,27.225c-0.144,0-0.287-0.015-0.433-0.046c-1.101-0.237-1.8-1.322-1.563-2.422   c1.646-7.626-4.818-10.523-5.095-10.644c-1.028-0.445-1.51-1.642-1.069-2.673c0.44-1.03,1.628-1.512,2.658-1.081   c3.419,1.438,9.385,6.475,7.489,15.257C74.023,26.573,73.178,27.225,72.238,27.225z" fill="#FFFFFF"/></g></svg>