<?xml version="1.0" encoding="UTF-8" standalone="no"?>
<!-- Generator: Adobe Illustrator 16.0.0, SVG Export Plug-In . SVG Version: 6.00 Build 0)  -->

<svg
   xmlns:dc="http://purl.org/dc/elements/1.1/"
   xmlns:cc="http://creativecommons.org/ns#"
   xmlns:rdf="http://www.w3.org/1999/02/22-rdf-syntax-ns#"
   xmlns:svg="http://www.w3.org/2000/svg"
   xmlns="http://www.w3.org/2000/svg"
   xmlns:sodipodi="http://sodipodi.sourceforge.net/DTD/sodipodi-0.dtd"
   xmlns:inkscape="http://www.inkscape.org/namespaces/inkscape"
   version="1.1"
   id="Layer_1"
   x="0px"
   y="0px"
   width="220.875px"
   height="29.562px"
   viewBox="0 0 220.875 29.562"
   enable-background="new 0 0 220.875 29.562"
   xml:space="preserve"
   inkscape:version="0.91 r13725"
   sodipodi:docname="logo.svg"><metadata
     id="metadata35"><rdf:RDF><cc:Work
         rdf:about=""><dc:format>image/svg+xml</dc:format><dc:type
           rdf:resource="http://purl.org/dc/dcmitype/StillImage" /><dc:title></dc:title></cc:Work></rdf:RDF></metadata><defs
     id="defs33" /><sodipodi:namedview
     pagecolor="#ffffff"
     bordercolor="#666666"
     borderopacity="1"
     objecttolerance="10"
     gridtolerance="10"
     guidetolerance="10"
     inkscape:pageopacity="0"
     inkscape:pageshadow="2"
     inkscape:window-width="1188"
     inkscape:window-height="831"
     id="namedview31"
     showgrid="false"
     inkscape:zoom="2.6530843"
     inkscape:cx="101.45387"
     inkscape:cy="-9.1790683"
     inkscape:window-x="407"
     inkscape:window-y="24"
     inkscape:window-maximized="0"
     inkscape:current-layer="Layer_1" /><text
     xml:space="preserve"
     style="font-style:normal;font-weight:normal;font-size:37.35668945px;line-height:125%;font-family:sans-serif;letter-spacing:0px;word-spacing:0px;fill:#3cadb2;fill-opacity:1;stroke:none;stroke-width:1px;stroke-linecap:butt;stroke-linejoin:miter;stroke-opacity:1"
     x="33.026207"
     y="24.792603"
     id="text3414"
     sodipodi:linespacing="125%"><tspan
       sodipodi:role="line"
       id="tspan3416"
       x="33.026207"
       y="24.792603"
       style="font-style:normal;font-variant:normal;font-weight:normal;font-stretch:normal;font-size:23.34793282px;font-family:'DejaVu Sans';-inkscape-font-specification:'DejaVu Sans';fill:#3cadb2;fill-opacity:1">Bilgehan<tspan
   style="fill:#fa6900;fill-opacity:1"
   id="tspan4218">Dental</tspan></tspan></text>
<g
     id="g4158"
     transform="matrix(0.34279764,0,0,0.34279764,10.645189,28.396815)"><g
       id="g3"
       transform="translate(-18.327297,-88.94647)"><g
         id="g5"><path
           id="path7"
           d="m 71.896,30.395 c -0.183,-4.91 -2.102,-7.731 -5.043,-9.768 -2.957,-1.994 -7.138,-2.93 -11.285,-2.92 -3.844,-0.009 -7.629,0.794 -10.188,1.953 l -1.021,0.453 -1.026,-0.453 c -2.047,-0.933 -4.901,-1.621 -7.944,-1.866 l -5.237,0.07 c -3.089,0.349 -6.042,1.25 -8.283,2.769 -2.942,2.03 -4.865,4.856 -5.047,9.758 -0.004,0.389 -0.016,0.753 -0.016,1.087 0.058,6.923 1.646,9.425 3.573,12.917 1.985,3.433 4.262,7.83 4.201,15.962 -0.006,9.441 1.595,14.98 3.335,17.908 1.769,2.943 2.362,3.383 4.293,3.383 2.041,0 2.747,-2.057 2.828,-3.143 0.394,-3.994 -0.287,-10.242 1.682,-16.904 0.567,-1.842 1.259,-4.154 2.643,-6.236 1.862,-2.813 6.896,-5.008 10.006,0 1.323,2.125 2.07,4.395 2.633,6.236 1.515,5.076 1.951,10.385 1.597,14.434 -0.488,5.629 2.815,5.613 2.92,5.613 1.756,0 2.523,-0.439 4.291,-3.383 1.741,-2.928 3.344,-8.465 3.336,-17.908 -0.057,-8.15 2.224,-12.529 4.209,-15.968 1.927,-3.492 3.5,-5.987 3.563,-12.911 -0.005,-0.346 -0.014,-0.704 -0.02,-1.083 z"
           inkscape:connector-curvature="0"
           style="fill:#f4f2e8" /><path
           sodipodi:nodetypes="cccsscccccccccccccccscccccsccccsssccccccccccccccscccccscccccccccccccscccssccccc"
           inkscape:connector-curvature="0"
           style="fill:#359a9e;fill-opacity:1;stroke:#194546;stroke-opacity:1"
           id="path9"
           d="M 74.118,30.703 74.111,30.311 C 73.92,25.161 72.015,21.504 68.092,18.79 64.938,16.662 60.511,15.491 55.631,15.491 l -0.129,0 c -3.937,0 -8.062,0.804 -11.017,2.143 l -0.128,0.057 -0.106,-0.047 C 41.914,16.58 38.83,15.848 35.566,15.585 35.497,15.58 35.421,15.576 35.359,15.579 l -5.238,0.069 c -0.074,10e-4 -0.146,0.007 -0.22,0.014 -3.648,0.413 -6.856,1.496 -9.292,3.146 -3.903,2.693 -5.812,6.348 -6.003,11.56 L 14.6,30.833 c -0.004,0.225 -0.008,0.439 -0.008,0.663 0.059,7.141 1.683,10.066 3.563,13.455 l 0.307,0.552 c 2.006,3.466 3.959,7.47 3.904,14.853 -0.007,10.656 1.979,16.236 3.651,19.051 1.859,3.098 3.008,4.455 6.189,4.455 3.052,0 4.844,-2.611 5.032,-5.141 0.125,-1.27 0.148,-2.727 0.173,-4.27 0.057,-3.484 0.128,-7.822 1.422,-12.199 l 0.044,-0.146 c 0.542,-1.76 1.155,-3.756 2.326,-5.518 0.657,-0.992 2.052,-1.998 3.446,-1.998 1.08,0 2.032,0.654 2.834,1.943 1.176,1.891 1.854,3.941 2.391,5.699 1.311,4.393 1.874,9.479 1.512,13.609 -0.244,2.818 0.299,4.975 1.612,6.408 1.371,1.496 3.035,1.611 3.513,1.611 l 0.002,0 c 2.565838,0 3.913317,-1.003139 5.408992,-3.221287 C 62.177404,80.259925 62.437139,79.845706 62.708,79.395 64.376,76.59 66.365,71.01 66.354,60.34 66.304,52.981 68.261,48.969 70.289,45.456 l 0.272,-0.494 c 1.878,-3.388 3.502,-6.315 3.564,-13.487 0.002,-0.25 -0.002,-0.507 -0.007,-0.772 z m -7.43,12.114 -0.256,0.463 c -2.21,3.828 -4.564,8.623 -4.506,17.078 0.01,10.16 -1.891,14.871 -3.021,16.768 -1.36,2.266 -1.591,2.307 -2.349,2.309 -0.417,-0.068 -0.951,-0.969 -0.758,-3.207 0.414,-4.727 -0.199,-10.287 -1.684,-15.273 -0.671,-2.191 -1.483,-4.527 -2.87,-6.758 -1.615,-2.6 -3.956,-4.031 -6.595,-4.031 -3.11,0 -5.825,1.998 -7.138,3.977 -1.522,2.295 -2.268,4.717 -2.866,6.664 l -0.054,0.168 c -1.471,4.982 -1.547,9.654 -1.607,13.408 -0.024,1.51 -0.046,2.814 -0.158,3.959 -10e-4,0.01 -0.146,1.094 -0.62,1.094 -0.932,0 -1.008,0 -2.389,-2.301 -1.133,-1.906 -3.031,-6.617 -3.025,-16.76 0.063,-8.482 -2.289,-13.27 -4.477,-17.05 l -0.29,-0.522 c -1.718,-3.094 -2.959,-5.329 -3.009,-11.323 0,-0.178 0.005,-0.367 0.009,-0.563 l 0.006,-0.441 c 0.139,-3.736 1.363,-6.134 4.077,-8.008 1.807,-1.224 4.289,-2.049 7.183,-2.389 l 5.021,-0.067 c 2.688,0.226 5.273,0.832 7.127,1.676 l 0.932,0.412 6.975,3.699 c 0.331,0.175 0.686,0.258 1.036,0.258 0.793,0 1.56,-0.427 1.958,-1.177 0.572,-1.08 0.161,-2.42 -0.919,-2.994 l -2.535,-1.345 c 1.78,-0.391 3.734,-0.617 5.615,-0.617 l 0.129,0 c 3.949,0 7.589,0.927 9.963,2.526 2.729,1.889 3.952,4.289 4.089,7.98 l 0.007,0.356 c 0.005,0.237 0.01,0.468 0.01,0.673 -0.056,6.026 -1.295,8.262 -3.011,11.358 z" /><path
           id="path11"
           d="m 76.009,54.783 c -0.855,0 -1.851,-0.313 -2.577,-1.221 C 71.811,51.537 72.567,47.867 75.957,41.294 81.548,30.459 79.08,19.843 69.67,14.252 59.899,8.449 43.729,13.843 43.566,13.898 c -0.414,0.143 -0.859,0.155 -1.282,0.044 -0.079,-0.021 -7.997,-2.106 -14.719,-1.936 -7.115,0.182 -13.041,3.251 -15.852,8.209 -7.294,12.878 4.204,30.937 4.321,31.119 0.44,0.682 0.474,1.549 0.086,2.262 -0.388,0.711 -1.134,1.156 -1.945,1.156 l -11.693,0 c -1.224,0 -2.215,-0.992 -2.215,-2.215 0,-1.223 0.991,-2.213 2.215,-2.213 l 7.896,0 C 7.056,43.889 1.283,29.645 7.862,18.033 11.445,11.71 18.768,7.802 27.453,7.579 c 6.289,-0.162 13.206,1.399 15.328,1.92 3.359,-1.038 18.729,-5.243 29.15,0.945 11.41,6.78 14.608,19.993 7.961,32.879 -2.048,3.968 -2.644,6.025 -2.805,7 l 11.433,0 c 1.223,0 2.214,0.992 2.214,2.215 0,1.221 -0.991,2.213 -2.214,2.213 l -12.043,0 c -0.149,0.02 -0.306,0.032 -0.468,0.032 z"
           inkscape:connector-curvature="0"
           style="fill:#68c1e0" /></g><path
         id="path13"
         d="m 27.596,40.761 c -0.714,0 -1.415,-0.345 -1.842,-0.982 -1.883,-2.813 -1.839,-7.321 0.105,-10.964 1.567,-2.937 4.089,-4.619 6.917,-4.619 1.223,0 2.214,0.99 2.214,2.214 0,1.222 -0.991,2.214 -2.214,2.214 -1.563,0 -2.558,1.428 -3.013,2.277 -1.131,2.119 -1.279,4.996 -0.331,6.414 0.681,1.018 0.408,2.393 -0.607,3.072 -0.377,0.252 -0.804,0.374 -1.229,0.374 z"
         inkscape:connector-curvature="0"
         style="fill:#ffffff" /></g><path
       inkscape:connector-curvature="0"
       id="path4161"
       d="m 23.613683,-75.060794 c -1.55463,-0.422572 -5.31838,-1.130224 -7.643708,-1.437154 -2.936997,-0.387667 -6.7030317,-0.523478 -8.5855887,-0.309613 -1.598841,0.181634 -3.572934,0.581869 -4.519261,0.916253 -0.174367,0.06161 -0.345535,0.112022 -0.380374,0.112022 -0.03484,0 -0.06334,-1.042401 -0.06334,-2.316447 l 0,-2.316448 0.380374,-0.109727 c 1.015897,-0.293059 2.936319,-0.618173 4.546378,-0.769672 1.146149,-0.107846 4.4197467,-0.107147 5.7961777,0.0012 3.297793,0.259681 6.720612,0.784112 10.188992,1.561117 l 1.13231,0.253667 0.75426,-0.21972 c 0.41483,-0.120848 1.41317,-0.379277 2.21852,-0.574289 4.584,-1.109996 8.86645,-1.614245 13.03852,-1.535258 l 0.63396,0.012 7e-5,2.227906 7e-5,2.227907 -0.85141,-0.02508 c -1.11933,-0.03297 -3.56845,0.100009 -5.1985,0.282256 -3.05515,0.341581 -6.37686,1.016554 -9.23479,1.876514 -1.09838,0.330504 -1.44009,0.352514 -2.21266,0.142519 z"
       style="fill:#fa6900;fill-opacity:1" /><path
       inkscape:connector-curvature="0"
       id="path4163"
       d="m -17.286469,-34.728011 c -1.164026,-0.979463 -1.027689,-2.806986 0.268366,-3.597319 0.562308,-0.342895 1.082198,-0.384933 4.768972,-0.385615 l 4.1378643,-7.67e-4 -0.893954,-1.926077 c -3.3580173,-7.235053 -4.9655523,-14.728327 -4.4141233,-20.575739 0.875657,-9.285563 5.7593653,-15.69383 14.29735326,-18.760593 l 1.48571204,-0.533654 -0.0025,2.403474 -0.0025,2.403473 -1.38072504,0.560365 c -4.09315996,1.661203 -7.22719696,4.933675 -8.72431396,9.109678 -1.621782,4.523739 -1.533771,10.386046 0.247658,16.496291 0.988687,3.391167 2.949894,7.963849 4.70337,10.966216 0.890138,1.524126 1.03755,2.306944 0.610795,3.243568 -0.489806,1.075009 -0.817485,1.121367 -7.9263123,1.121367 l -6.552081,0 -0.623532,-0.524668 z"
       style="fill:#fa6900;fill-opacity:1" /><path
       inkscape:connector-curvature="0"
       id="path4165"
       d="m 55.930363,-34.59285 c -0.34994,-0.213387 -0.85713,-0.743286 -1.1271,-1.177557 -0.41734,-0.671349 -0.4879,-1.035072 -0.4712,-2.42899 0.0257,-2.145822 0.65661,-4.070733 2.85462,-8.709349 1.93579,-4.085238 2.65302,-6.194451 3.10097,-9.1192 1.08642,-7.093451 -1.89673,-13.864135 -7.89391,-17.916351 -2.62017,-1.770416 -6.04972,-2.92391 -9.53384,-3.20661 l -1.7652,-0.143227 0,-2.256912 0,-2.25691 1.89557,0.124954 c 6.07238,0.400289 11.32834,2.759224 15.54661,6.977502 2.90287,2.902866 4.75522,6.1744 5.86753,10.362939 0.44451,1.673861 0.52392,2.428273 0.54089,5.138264 0.0116,1.851946 -0.0949,3.817191 -0.25531,4.713295 -0.44723,2.497652 -1.76663,6.252431 -3.29458,9.375796 -1.39314,2.847801 -2.47216,5.51388 -2.47216,6.108319 0,0.250057 0.89427,0.295175 5.85057,0.295175 6.42798,0 6.75982,0.05511 7.36368,1.222848 0.51838,1.00244 0.3989,1.803981 -0.38589,2.588773 l -0.69675,0.696748 -7.24413,-8.2e-4 c -6.74653,-6.15e-4 -7.28783,-0.02741 -7.88037,-0.38874 l 0,5.3e-5 z"
       style="fill:#fa6900;fill-opacity:1" /></g></svg>